<svg width="92" height="56" viewBox="0 0 92 56" fill="none" xmlns="http://www.w3.org/2000/svg">
<rect width="92" height="56" fill="#2B2B2B"/>
<path d="M14.1328 44H5.8125L5.85938 42.7344H14.1328C16.5859 42.7344 18.7734 42.1484 20.6953 40.9766C22.6328 39.8047 24.1562 38.1875 25.2656 36.125C26.3906 34.0625 26.9531 31.6953 26.9531 29.0234V24.7812C26.9531 22.7969 26.6328 20.9766 25.9922 19.3203C25.3516 17.6484 24.4531 16.2031 23.2969 14.9844C22.1406 13.7656 20.7812 12.8203 19.2188 12.1484C17.6562 11.4766 15.9609 11.1406 14.1328 11.1406H5.67188V9.875H14.1328C16.1484 9.875 18.0078 10.2344 19.7109 10.9531C21.4297 11.6719 22.9219 12.6953 24.1875 14.0234C25.4688 15.3516 26.4609 16.9375 27.1641 18.7812C27.8672 20.6094 28.2188 22.6328 28.2188 24.8516V29.0234C28.2188 31.2422 27.8672 33.2734 27.1641 35.1172C26.4609 36.9453 25.4688 38.5234 24.1875 39.8516C22.9219 41.1797 21.4297 42.2031 19.7109 42.9219C18.0078 43.6406 16.1484 44 14.1328 44ZM5.95312 9.875V44H4.6875V9.875H5.95312ZM35.9766 9.875H46.8516C49.0234 9.875 50.9531 10.2578 52.6406 11.0234C54.3281 11.7734 55.6484 12.8828 56.6016 14.3516C57.5703 15.8047 58.0547 17.5938 58.0547 19.7188C58.0547 21.375 57.6953 22.875 56.9766 24.2188C56.2578 25.5469 55.2969 26.6406 54.0938 27.5C52.8906 28.3594 51.5469 28.8984 50.0625 29.1172L49.3359 29.3984H36.2812L36.2344 28.1328H48C49.9531 28.1328 51.5781 27.7266 52.875 26.9141C54.1719 26.1016 55.1484 25.0547 55.8047 23.7734C56.4609 22.4766 56.7891 21.125 56.7891 19.7188C56.7891 17.9219 56.3828 16.3906 55.5703 15.125C54.7578 13.8437 53.6016 12.8594 52.1016 12.1719C50.6172 11.4844 48.8672 11.1406 46.8516 11.1406H37.2422V44H35.9766V9.875ZM58.1484 44L48.7969 28.9531L50.2734 28.9062L59.4844 43.6719V44H58.1484ZM78.8672 27.1484H68.2734L68.2266 25.8828H76.9453C79.0078 25.8828 80.7344 25.6172 82.125 25.0859C83.5312 24.5547 84.5859 23.7422 85.2891 22.6484C85.9922 21.5547 86.3438 20.1797 86.3438 18.5234C86.3438 16.8828 85.9688 15.5156 85.2188 14.4219C84.4844 13.3281 83.3828 12.5078 81.9141 11.9609C80.4609 11.4141 78.6484 11.1406 76.4766 11.1406H68.7656V44H67.5V9.875H76.4766C78.1953 9.875 79.7422 10.0469 81.1172 10.3906C82.4922 10.7344 83.6641 11.2656 84.6328 11.9844C85.6016 12.7031 86.3438 13.6172 86.8594 14.7266C87.375 15.8203 87.6328 17.1172 87.6328 18.6172C87.6328 20.0234 87.3672 21.2891 86.8359 22.4141C86.3203 23.5391 85.5625 24.4531 84.5625 25.1562C83.5625 25.8594 82.3281 26.2891 80.8594 26.4453L78.8672 27.1484ZM78.6328 44H68.2266L68.625 42.7344H78.6328C80.5547 42.7344 82.2031 42.4141 83.5781 41.7734C84.9688 41.1328 86.0391 40.2109 86.7891 39.0078C87.5391 37.7891 87.9141 36.3359 87.9141 34.6484C87.9141 33.3359 87.5781 32.1094 86.9062 30.9688C86.25 29.8281 85.25 28.9062 83.9062 28.2031C82.5625 27.5 80.8828 27.1484 78.8672 27.1484H73.3359L73.3828 25.8828H81.4688L81.5625 26.3281C83 26.5 84.2891 26.9766 85.4297 27.7578C86.5859 28.5391 87.5 29.5312 88.1719 30.7344C88.8438 31.9219 89.1797 33.2109 89.1797 34.6016C89.1797 36.6172 88.7266 38.3281 87.8203 39.7344C86.9297 41.125 85.6953 42.1875 84.1172 42.9219C82.5391 43.6406 80.7109 44 78.6328 44Z" fill="white"/>
</svg>
